<?xml version="1.0" encoding="UTF-8"?>
<svg id="Camada_2" xmlns="http://www.w3.org/2000/svg" viewBox="0 0 40 40">
  <defs>
    <style>
      .cls-1 {
        fill: #fff;
      }
    </style>
  </defs>
  <g id="Camada_1-2" data-name="Camada_1">
    <g>
      <path class="cls-1" d="M20.01,29.67c1.14-1.09,2.24-2.14,3.34-3.19,2.71-2.59,5.4-5.19,8.13-7.77,1.31-1.24,2.98-1.7,4.9-1.27,1.94.43,3.12,1.54,3.52,3.18.34,1.4-.16,2.63-1.29,3.69-2.01,1.9-3.99,3.82-5.99,5.72-2.93,2.8-5.86,5.61-8.79,8.41-1.93,1.84-4.94,2.08-7.02.52-.64-.48-1.17-1.06-1.74-1.6-4.56-4.36-9.12-8.72-13.67-13.08-1.71-1.64-1.85-3.78-.37-5.38,1.9-2.06,5.5-2.12,7.6-.12,3.68,3.51,7.36,7.04,11.03,10.56.1.1.2.19.36.33Z"/>
      <path class="cls-1" d="M20,12.39c1.2-1.15,2.36-2.25,3.51-3.36,2.64-2.53,5.27-5.06,7.92-7.58,1.66-1.57,4.21-1.9,6.23-.84,2.47,1.29,3.11,4.15,1.26,6.05-1.54,1.58-3.18,3.09-4.79,4.62-3.36,3.22-6.74,6.44-10.09,9.67-.9.87-1.92,1.55-3.32,1.71-1.61.19-3.05-.16-4.15-1.16-1.64-1.48-3.21-3.03-4.8-4.56-3.46-3.3-6.91-6.61-10.36-9.92C-.39,5.29-.47,3.05,1.21,1.42c1.94-1.88,5.39-1.84,7.44.11,3.62,3.45,7.22,6.91,10.83,10.36.16.15.31.3.52.5Z"/>
    </g>
  </g>
</svg>