<?xml version="1.0" encoding="UTF-8"?>
<svg id="Camada_2" xmlns="http://www.w3.org/2000/svg" viewBox="0 0 40 40">
  <g id="Camada_1-2" data-name="Camada_1">
    <g>
      <path d="M5.33,39.99c1.46,0,2.92-.03,4.38.01.67.02,1.17-.28,1.62-1.1,1.32-2.38,2.69-4.69,4.05-7.03,2.06-3.57,4.13-7.13,6.19-10.7.49-.84.48-1.89-.01-2.73-2.82-4.78-5.65-9.55-8.46-14.33-.55-.93-1.06-1.91-1.6-2.86C10.99.39,10.4-.02,9.6,0,6.68.06,3.76.02.84.02c-.08,0-.17,0-.25,0C.36.04.08.05.04.44c-.03.26.07.63.2.84,3.38,5.74,6.76,11.48,10.15,17.21.47.79.48,1.86.02,2.65C7.02,26.99,3.63,32.85.24,38.71c-.08.14-.16.3-.21.47-.09.35,0,.61.22.72.14.07.29.08.44.08,1.54,0,3.09,0,4.63,0Z"/>
      <path d="M23.4.02c-1.51,0-3.03,0-4.54,0-.08,0-.18-.04-.25,0-.17.11-.43.2-.48.4-.06.2.04.6.15.8.94,1.63,1.9,3.23,2.85,4.85,2.45,4.16,4.91,8.31,7.36,12.47.42.72.43,1.82.01,2.54-3.23,5.59-6.47,11.18-9.71,16.77-.2.34-.4.67-.58,1.02-.27.51-.14,1.01.29,1.1.11.02.23.02.35.02,2.99,0,5.99-.01,8.98.01.65,0,1.12-.32,1.56-1.09,1.52-2.71,3.08-5.36,4.63-8.04,1.9-3.28,3.79-6.55,5.69-9.83.37-.65.37-1.79,0-2.43-3.14-5.33-6.29-10.65-9.44-15.98-.33-.56-.65-1.14-.97-1.72-.34-.62-.76-.9-1.3-.89-1.53.02-3.07,0-4.6,0Z"/>
    </g>
  </g>
</svg>