<?xml version="1.0" encoding="UTF-8"?>
<svg id="Camada_2" xmlns="http://www.w3.org/2000/svg" viewBox="0 0 71.26 286.82">
  <defs>
    <style>
      .cls-1 {
        fill: #fff;
      }
    </style>
  </defs>
  <g id="Camada_1-2" data-name="Camada_1">
    <g>
      <path class="cls-1" d="M55.17,192.14c1.98-17.76,3.93-35.21,5.87-52.67,2.91-26.13,5.84-52.26,8.7-78.39,1.17-10.65,2.57-21.29.31-32C64.86,4.54,38.33-7.73,17.71,5.25,4.41,13.62-.78,26.61.09,41.75c.85,14.79,2.77,29.53,4.34,44.27,3.12,29.24,6.33,58.48,9.51,87.71.67,6.13,1.4,12.26,2.11,18.41h39.11Z"/>
      <path class="cls-1" d="M35.51,215.85C15.87,215.91.08,231.71.09,251.3c.01,19.57,15.83,35.42,35.42,35.51,19.66.09,35.75-16.04,35.6-35.7-.15-19.66-15.96-35.32-35.6-35.27Z"/>
    </g>
  </g>
</svg>