<?xml version="1.0" encoding="UTF-8"?>
<svg id="Camada_2" xmlns="http://www.w3.org/2000/svg" viewBox="0 0 371.22 383.35">
  <defs>
    <style>
      .cls-1 {
        fill: #ded405;
      }
    </style>
  </defs>
  <g id="Camada_1-2" data-name="Camada_1">
    <g>
      <path class="cls-1" d="M100.99,383.35c-2.83-.87-5.73-1.56-8.48-2.64-14.73-5.81-23.43-19.2-23.46-36.19-.05-28.82-.01-57.64-.01-86.46,0-1.49,0-2.98,0-5.11-1.5,0-2.8,0-4.11,0-10.61,0-21.21.14-31.82-.06-10.21-.19-18.06-4.75-22.5-14.07-4.22-8.87-3.17-17.54,2.76-25.37,5.11-6.75,12.23-9.58,20.56-9.59,10.23-.01,20.46,0,30.7,0,1.33,0,2.67,0,4.41,0,0-2.03,0-3.61,0-5.2,0-53.02,0-106.04,0-159.06,0-18.22,9.1-32.08,24.91-37.36,4.06-1.36,8.53-2.11,12.81-2.12C155.19-.02,203.6-.03,252.01.06c21.33.04,37.57,16.07,37.59,37.37.09,102.8.08,205.6,0,308.4-.01,18.78-12.27,33.22-30.78,36.93-.47.09-.89.39-1.34.59H100.99ZM102.14,203.85c1.77,0,3.36-.02,4.94,0,11.72.13,23.49-.36,35.15.58,12.09.97,20.89,11.77,20.91,23.9.01,12.14-8.73,22.4-20.8,24.11-3.56.5-7.23.17-10.81.6-1.3.16-2.95,1.12-3.6,2.21-2.03,3.42-3.59,7.11-5.46,10.64-2.15,4.07-5.3,4.34-8.13.68-2.98-3.85-5.81-7.81-8.8-11.64-.7-.9-1.82-1.48-3.31-2.64v37.08h154.47v-12.1c-1.68,0-3.15,0-4.61,0-18.22,0-36.44-.02-54.65.01-2.89,0-5.55-.56-5.62-3.97-.07-3.4,2.52-4.21,5.44-4.19,1,0,2,0,2.99,0,17.34,0,34.69,0,52.03,0,1.44,0,2.88,0,4.36,0v-12.25c-1.61,0-2.96,0-4.31,0-17.97,0-35.94,0-53.91,0-1,0-2.25.35-2.94-.11-1.41-.95-3.54-2.39-3.49-3.55.07-1.5,1.77-3.17,3.18-4.25.81-.62,2.41-.24,3.65-.24,17.97,0,35.94,0,53.91,0,1.31,0,2.63,0,3.88,0v-12.14h-4.37c-17.84,0-35.69,0-53.53,0-1.25,0-2.81.37-3.66-.24-1.36-.97-3.11-2.63-3.08-3.96.03-1.33,1.89-2.84,3.27-3.82.76-.54,2.18-.18,3.3-.18,18.09,0,36.19,0,54.28,0h3.78v-12.17h-4.79c-17.84,0-35.69,0-53.53-.02-1.35,0-3,.13-3.97-.55-1.16-.81-2.53-2.55-2.37-3.69.19-1.37,1.73-2.77,3.01-3.68.77-.54,2.18-.2,3.3-.2,18.09,0,36.19,0,54.28,0h4.39v-4.47c0-51.65,0-103.3,0-154.95,0-1,.02-2-.05-2.99-.31-4.93-3.61-8.72-8.46-8.81-10.84-.22-21.68-.07-32.43-.07-3.89,10.79-10.47,16.17-20.18,16.29-10.85.13-21.71.12-32.57,0-8.89-.1-16.29-5.25-19.16-13.57-.86-2.49-2.07-2.84-4.3-2.82-8.73.1-17.47.03-26.2.04-8.25.01-11.61,3.33-11.62,11.53-.02,15.22-.01,30.44,0,45.66,0,1.21.12,2.43.21,4.06,1.71,0,3.17,0,4.62,0,31.2,0,62.39-.09,93.59.07,12.85.06,22.75,9.71,23.95,22.7,1.07,11.64-7.3,22.95-19.26,25.38-3.98.81-8.2.33-12.27.78-1.29.14-2.95,1.1-3.6,2.19-2.1,3.53-3.73,7.32-5.67,10.94-2.12,3.95-5.1,4.21-7.84.7-2.91-3.74-5.83-7.48-8.5-11.39-1.37-2-2.91-2.6-5.26-2.59-18.72.09-37.43.05-56.15.06-1.19,0-2.38.13-3.61.2v56.85ZM93.82,96.63c0-.5,0-1.96,0-3.42,0-15.35-.07-30.69.03-46.04.07-11.38,7.25-18.56,18.44-18.62,10.98-.05,21.96.05,32.95-.04,3.65-.03,5.49,1.41,5.88,5.15.71,6.77,5.46,11.15,12.22,11.23,10.73.12,21.46.12,32.2,0,6.75-.07,11.57-4.49,12.48-11.09.61-4.43,1.49-5.24,6-5.25,10.36-.02,20.73.36,31.07-.11,11.44-.51,20.19,7.27,20.15,20.1-.27,85.96-.26,171.93,0,257.89.04,12.41-8.38,20.06-19.9,19.99-43.8-.27-87.61-.11-131.41-.11-13.27,0-20.07-6.77-20.08-20.02-.02-16.22,0-32.43,0-48.65,0-1.45,0-2.9,0-4.41h-16.63c0,1.51,0,2.74,0,3.97,0,29.07-.02,58.14,0,87.22.02,18.55,12.16,30.72,30.7,30.74,47.67.03,95.34.03,143.02,0,18.37-.01,30.53-12.18,30.54-30.47.02-102.07.02-204.13,0-306.2,0-18.06-12.2-30.25-30.35-30.27-47.8-.05-95.59-.04-143.39,0-18.32.02-30.46,12.21-30.5,30.55-.05,20.46-.01,40.93-.01,61.39,0,1.08,0,2.15,0,2.97,5.33-2.08,10.44-4.08,16.63-6.5ZM117.6,257.32c1.78-3.53,3.3-6.38,4.67-9.31,1.08-2.31,2.72-3.37,5.3-3.29,3.62.11,7.24.09,10.86,0,9.44-.2,16.5-7.19,16.52-16.28.02-9.11-6.97-16.34-16.41-16.37-35.31-.1-70.62-.09-105.93,0-7.34.02-13.39,4.72-15.48,11.42-3.38,10.82,4.55,21.19,16.39,21.22,23.46.07,46.92.07,70.37-.04,3.08-.01,5.18.92,6.88,3.47,1.99,2.98,4.28,5.76,6.83,9.16ZM178.79,151.3c1.74-3.47,3.25-6.32,4.61-9.23,1.14-2.44,2.93-3.52,5.62-3.46,3.99.08,7.99.15,11.98-.05,9.9-.49,17-10.05,14.75-19.71-1.89-8.11-8.07-12.71-17.41-12.73-24.83-.04-49.67-.02-74.5-.02-9.73,0-19.46,0-29.19.01-9.15,0-16.53,6.38-16.91,14.57-.49,10.86,6.38,17.97,17.26,17.96,23.33-.02,46.67.04,70-.05,3.07-.01,5.19.97,6.89,3.5,2.01,2.99,4.31,5.79,6.89,9.22ZM101.93,297.91c0,2.91,0,5.38,0,7.85.01,9.26,3.11,12.39,12.3,12.39,43.54,0,87.09,0,130.63,0,1.25,0,2.51.06,3.74-.11,3.93-.54,7.2-2.61,7.79-6.49.67-4.44.16-9.06.16-13.64H101.93ZM93.65,147.95c-5.82-2.24-11.04-4.25-16.23-6.25v61.87h16.23v-55.63Z"/>
      <path class="cls-1" d="M57.05,85.74c-.04,15.79-12.83,28.52-28.56,28.43C12.76,114.08-.06,101.21,0,85.57c.06-15.61,13.09-28.57,28.66-28.49,15.7.07,28.44,12.93,28.39,28.66ZM48.94,85.57c-.07-11.28-9.33-20.44-20.55-20.32-11.21.12-20.35,9.48-20.21,20.69.14,11.04,9.34,20.13,20.39,20.13,11.23,0,20.44-9.27,20.37-20.5Z"/>
      <path class="cls-1" d="M314.15,77.49c.01-15.74,12.82-28.57,28.5-28.54,15.65.03,28.57,12.96,28.56,28.57-.01,15.62-13,28.58-28.6,28.55-15.73-.03-28.47-12.83-28.46-28.58ZM363.03,77.6c.05-11.18-9.24-20.53-20.4-20.52-11.21,0-20.44,9.31-20.36,20.53.07,11.11,9.09,20.19,20.19,20.34,11.11.15,20.53-9.17,20.58-20.35Z"/>
      <path class="cls-1" d="M36.85,297.8c11.35.04,20.31,9.14,20.2,20.52-.11,11.33-9.24,20.24-20.62,20.13-11.07-.11-20.05-9.23-20.05-20.37,0-11.31,9.1-20.32,20.47-20.28ZM36.88,330.26c6.69-.06,12.09-5.53,12.05-12.22-.04-6.75-5.39-12.08-12.15-12.11-6.9-.03-12.31,5.47-12.2,12.4.1,6.71,5.54,11.98,12.31,11.92Z"/>
      <path class="cls-1" d="M358.88,318.16c-.03,11.31-9.14,20.33-20.49,20.28-11.23-.05-20.34-9.32-20.23-20.59.11-11.12,9.14-20.03,20.34-20.06,11.35-.03,20.4,9.01,20.38,20.36ZM338.59,330.26c6.7-.02,12.15-5.45,12.18-12.12.03-6.7-5.36-12.13-12.09-12.21-6.89-.08-12.38,5.4-12.32,12.31.06,6.7,5.49,12.04,12.23,12.02Z"/>
      <path class="cls-1" d="M195.72,351.14c.05,8.88-7.19,16.26-16.06,16.38-8.94.12-16.51-7.43-16.46-16.39.06-8.84,7.43-16.16,16.28-16.16,8.89,0,16.18,7.27,16.23,16.18ZM179.33,343.12c-4.38.1-8.01,3.88-7.93,8.26.08,4.39,3.86,8.04,8.22,7.95,4.38-.09,8.04-3.88,7.95-8.23-.09-4.36-3.92-8.07-8.24-7.97Z"/>
    </g>
  </g>
</svg>