<?xml version="1.0" encoding="UTF-8"?>
<svg id="Camada_2" xmlns="http://www.w3.org/2000/svg" viewBox="0 0 24.91 31.15">
  <defs>
    <style>
      .cls-1 {
        fill: #3f3f46;
      }
    </style>
  </defs>
  <g id="Camada_1-2" data-name="Camada_1">
    <g>
      <path class="cls-1" d="M18.74,11.8c0,1.59.01,3.19.01,4.78,0,4.7,0,9.4.01,14.1,0,.35-.06.46-.44.46-5.95-.01-11.9-.01-17.86,0-.35,0-.47-.06-.46-.45.03-1.25.02-2.5.02-3.76.22-.05.35-.22.5-.37,1.71-1.71,3.41-3.41,5.12-5.12.17-.17.32-.38.6-.37,0,1.14.02,2.28,0,3.41,0,.32.09.4.41.4,1.82-.01,3.64-.02,5.46,0,.32,0,.4-.09.4-.41,0-2.28,0-4.55,0-6.83.28,0,.43-.2.6-.37,1.71-1.71,3.41-3.41,5.12-5.12.15-.15.27-.33.5-.37Z"/>
      <path class="cls-1" d="M18.74,11.8c-.23.04-.35.22-.5.37-1.71,1.7-3.41,3.41-5.12,5.12-.17.17-.32.38-.6.37,0-2.62-.02-5.24,0-7.86,0-.45-.12-.56-.56-.55-1.85.02-3.7.01-5.56.01-.03-.19.11-.25.19-.33C9.5,6.02,12.42,3.11,15.32.19c.27-.27.4-.23.65.01,1.7,1.72,3.42,3.43,5.14,5.15,1.16,1.16,2.32,2.32,3.48,3.48.11.11.22.23.33.35-.14.14-.29.08-.43.08-1.77,0-3.55,0-5.32,0-.31,0-.42.07-.41.4.02.71,0,1.43,0,2.15Z"/>
      <path class="cls-1" d="M6.24,21.08c-.28-.01-.43.2-.6.37-1.71,1.71-3.41,3.41-5.12,5.12-.15.15-.27.33-.5.37,0-2.67,0-5.33-.02-8,0-.23.06-.31.3-.31,1.89,0,3.77,0,5.66,0,.23,0,.31.07.3.31-.02.71-.02,1.43-.02,2.14Z"/>
    </g>
  </g>
</svg>