<?xml version="1.0" encoding="UTF-8"?>
<svg id="Camada_2" xmlns="http://www.w3.org/2000/svg" viewBox="0 0 50 50">
  <defs>
    <style>
      .cls-1 {
        fill: #fff;
      }
    </style>
  </defs>
  <g id="Camada_1-2" data-name="Camada_1">
    <g>
      <path class="cls-1" d="M.2,50h-.2c.03-.06.06-.12.08-.18,1.11-4.04,2.22-8.09,3.34-12.13.1-.37.07-.66-.12-1.01C.42,31.39-.48,25.76.73,19.87,3.45,6.64,16.06-1.9,29.42.36c13.71,2.33,22.91,15.78,20.07,29.37-3.38,16.18-21.22,24.62-35.94,17-.19-.1-.47-.13-.68-.08-2.75.7-5.5,1.42-8.24,2.14-1.48.39-2.95.8-4.43,1.2ZM6.01,44.08c.23-.05.35-.07.48-.1,2.27-.59,4.55-1.18,6.81-1.79.37-.1.66-.06,1,.14,4.51,2.69,9.35,3.62,14.54,2.7,9.42-1.67,16.59-9.88,16.93-19.4.16-4.37-.94-8.4-3.31-12.09-4.32-6.74-12.66-10.46-20.51-9.15-4,.67-7.57,2.25-10.55,4.99-5.63,5.18-7.84,11.59-6.6,19.14.44,2.7,1.49,5.18,2.99,7.47.24.36.29.68.16,1.09-.27.87-.5,1.75-.74,2.63-.39,1.42-.78,2.85-1.19,4.36Z"/>
      <path class="cls-1" d="M17.09,13.36c1.09-.27,1.58.43,1.95,1.4.55,1.44,1.17,2.86,1.78,4.28.18.43.22.83-.05,1.21-.49.69-.99,1.37-1.53,2.02-.42.51-.48.77-.13,1.35,2.01,3.39,4.85,5.84,8.53,7.3.57.23.86.17,1.25-.31.64-.76,1.26-1.54,1.88-2.32.4-.5.68-.64,1.27-.38,1.76.8,3.52,1.64,5.25,2.51.22.11.42.49.42.75,0,1.76-.5,3.26-2.09,4.31-2.09,1.37-4.28,1.48-6.61.81-5.92-1.68-10.29-5.41-13.79-10.3-1.08-1.51-2.05-3.06-2.5-4.88-.68-2.74-.01-5.11,2.01-7.1.64-.63,1.42-.75,2.36-.65Z"/>
    </g>
  </g>
</svg>