<?xml version="1.0" encoding="UTF-8"?>
<svg id="Camada_2" xmlns="http://www.w3.org/2000/svg" viewBox="0 0 21.92 39.99">
  <g id="Camada_1-2" data-name="Camada_1">
    <path d="M5.33.01c-1.51,0-3.03,0-4.54,0-.08,0-.18-.04-.25,0C.36.13.11.22.05.42,0,.63.09,1.02.21,1.22c.94,1.63,1.9,3.23,2.85,4.85,2.45,4.16,4.91,8.31,7.36,12.47.42.72.43,1.82.01,2.54-3.23,5.59-6.47,11.18-9.71,16.77-.2.34-.4.67-.58,1.02-.27.51-.14,1.01.29,1.1.11.02.23.02.35.02,2.99,0,5.99-.01,8.98.01.65,0,1.12-.32,1.56-1.09,1.52-2.71,3.08-5.36,4.63-8.04,1.9-3.28,3.79-6.55,5.69-9.83.37-.65.37-1.79,0-2.43-3.14-5.33-6.29-10.65-9.44-15.98-.33-.56-.65-1.14-.97-1.72C10.89.28,10.47,0,9.93,0c-1.53.02-3.07,0-4.6,0Z"/>
  </g>
</svg>